<!--?xml version="1.0" encoding="utf-8"?-->
<!-- Generator: Adobe Illustrator 19.2.1, SVG Export Plug-In . SVG Version: 6.00 Build 0)  -->
<svg version="1.1" id="_x31_0" xmlns="http://www.w3.org/2000/svg" xmlns:xlink="http://www.w3.org/1999/xlink" x="0px" y="0px" viewBox="0 0 512 512" style="width: 256px; height: 256px; opacity: 1;" xml:space="preserve">
<style type="text/css">
	.st0{fill:#374149;}
</style>
<g>
	<ellipse class="st0" cx="192.757" cy="254.659" rx="15.65" ry="15.862" style="fill: rgb(228, 175, 155);"></ellipse>
	<ellipse class="st0" cx="317.187" cy="254.659" rx="15.648" ry="15.862" style="fill: rgb(228, 175, 155);"></ellipse>
	<path class="st0" d="M284.481,357.275v-0.05c-0.207-1.153-1.45-1.73-2.535-1.309c-1.031,0.418-2.118,0.785-3.203,1.152
		c-0.723,0.262-1.446,0.469-2.168,0.68c-1.758,0.523-3.566,0.942-5.481,1.309c-1.133,0.262-2.324,0.472-3.562,0.629
		c-0.879,0.156-1.758,0.262-2.687,0.367c-2.844,0.316-5.84,0.469-8.887,0.469c-3.05,0-5.996-0.153-8.836-0.469
		c-0.934-0.106-1.812-0.211-2.687-0.367c-1.242-0.157-2.43-0.367-3.566-0.629c-1.914-0.367-3.722-0.786-5.477-1.309
		c-0.777-0.211-1.5-0.418-2.172-0.68c-1.136-0.316-2.171-0.734-3.202-1.152c-0.242-0.094-0.466,0.027-0.711,0.027
		c-0.008-0.004-0.012-0.004-0.02-0.008c-0.011,0-0.019,0.008-0.031,0.008c-0.832,0.023-1.617,0.402-1.773,1.282v0.05
		c-0.207,0.946-0.309,1.887-0.414,2.883c-0.102,0.89-0.152,1.832-0.152,2.773c0,0.997,0.05,1.993,0.152,2.989
		c0.054,0.469,0.106,0.942,0.156,1.414c0,0.157,0,0.313,0.051,0.469c0.054,0.317,0.106,0.684,0.207,0.996
		c0.363,1.887,0.934,3.719,1.652,5.45c0.363,0.886,0.778,1.726,1.191,2.562c0.825,1.519,1.809,3.039,2.894,4.402
		c2.219,2.879,4.958,5.289,8.114,7.07c0.722,0.473,1.446,0.836,2.218,1.207c0.676,0.312,1.348,0.625,2.07,0.89
		c0.516,0.258,1.137,0.469,1.707,0.629c0.668,0.207,1.34,0.414,2.012,0.574c0.156,0.05,0.363,0.106,0.57,0.106
		c0.617,0.156,1.293,0.262,1.965,0.367c0.254,0.05,0.566,0.102,0.875,0.102c0.621,0.105,1.242,0.16,1.859,0.16
		c0.262,0.05,0.469,0.05,0.726,0.05c0.672,0,1.394,0,2.066-0.05c0.566,0,1.187-0.055,1.754-0.106
		c0.414-0.054,0.778-0.106,1.141-0.156c0.618-0.106,1.187-0.211,1.754-0.367c0.207,0,0.364-0.055,0.57-0.106
		c0.723-0.16,1.395-0.367,2.016-0.574c0.515-0.16,1.035-0.316,1.55-0.578c0.774-0.262,1.5-0.578,2.219-0.941
		c1.449-0.684,2.844-1.52,4.137-2.41c2.324-1.625,4.441-3.614,6.199-5.867c1.086-1.363,2.066-2.883,2.894-4.402
		c0.414-0.836,0.828-1.676,1.187-2.562c0.778-1.73,1.348-3.562,1.657-5.45c0.102-0.312,0.152-0.679,0.202-0.996
		c0-0.156,0.055-0.312,0.055-0.469c0.05-0.472,0.102-0.945,0.152-1.414c0.106-0.996,0.157-1.992,0.157-2.989
		c0-0.941-0.051-1.882-0.157-2.773C284.789,359.162,284.683,358.221,284.481,357.275z" style="fill: rgb(228, 175, 155);"></path>
	<path class="st0" d="M245.844,318.858c5.266,6.48,15.05,6.48,20.312,0l10.09-12.414c7.066-8.703,0.961-21.816-10.157-21.816
		h-20.175c-11.118,0-17.223,13.113-10.157,21.816L245.844,318.858z" style="fill: rgb(228, 175, 155);"></path>
	<path class="st0" d="M474.641,216.232c-2.23-16.43-6.59-34.515-13.23-52.851c-0.321-0.883-0.637-1.766-0.973-2.656
		c-1.504-4.024-3.141-8.035-4.89-12.062c-0.719-1.661-1.438-3.313-2.207-4.989c-1.59-3.449-3.29-6.875-5.066-10.301
		c-1.058-2.043-2.122-4.09-3.266-6.141c-1.434-2.59-2.93-5.148-4.481-7.703c-0.633-1.042-1.324-2.086-1.984-3.129
		c-2.891-4.605-5.969-9.133-9.25-13.594c-0.656-0.89-1.34-1.774-2.015-2.664c-1.774-2.332-3.418-4.726-5.301-7.004
		c-0.262-0.343-0.473-0.57-0.73-0.914c-1.727-2.168-3.657-4.215-5.59-6.325c-0.473-0.629-1.098-1.312-1.621-1.828
		c-1.672-1.878-3.5-3.703-5.278-5.469c-0.781-0.797-1.617-1.71-2.398-2.507c-1.777-1.653-3.609-3.25-5.382-4.844
		c-0.938-0.914-1.828-1.77-2.77-2.566c-1.981-1.711-4.07-3.363-6.11-5.016c-0.89-0.683-1.672-1.426-2.558-2.054
		c-2.457-1.934-5.016-3.762-7.574-5.527c-0.523-0.398-1.047-0.797-1.566-1.141c-31.863-21.886-73.074-36.309-125.73-37.16
		c-34.684-0.57-65.394,7.922-92.137,22.511c-0.89,0.458-1.778,0.856-2.664,1.367c-2.562,1.426-5.121,3.024-7.629,4.618
		c-1.047,0.629-2.141,1.313-3.137,1.942c-2.61,1.706-5.012,3.418-7.519,5.183c-0.782,0.688-1.672,1.199-2.504,1.883
		c-2.618,1.882-5.176,3.934-7.684,5.984c-0.469,0.398-0.886,0.742-1.355,1.141C83.527,101.119,53,159.431,39.145,215.119
		C15.898,228.385,0,254.854,0,285.283c0,41.813,30,76.164,67.863,79.027c6.535,19.57,16.153,37.543,28.278,53.5
		c0.023,0.027,0.05,0.054,0.07,0.086c2.894,3.801,5.914,7.497,9.086,11.063c2.722,3.066,5.594,5.98,8.508,8.859
		c0.535,0.527,1.023,1.098,1.566,1.621c10.141,9.77,21.426,18.332,33.598,25.664c0.707,0.43,1.379,0.906,2.09,1.328
		c2.446,1.43,4.992,2.703,7.504,4.028c2.039,1.082,4.027,2.23,6.114,3.242c0.867,0.418,1.774,0.762,2.648,1.168
		C193.879,487.283,223.91,494.24,256,494.24c32.359,0,62.633-7.054,89.355-19.668c0.633-0.297,1.294-0.546,1.922-0.851
		c2.343-1.133,4.582-2.414,6.867-3.637c2.254-1.203,4.55-2.34,6.75-3.629c0.954-0.559,1.852-1.195,2.793-1.77
		c3.395-2.066,6.766-4.16,10.012-6.426c0.062-0.039,0.118-0.086,0.176-0.13c8.094-5.652,15.714-11.902,22.793-18.722
		c0.234-0.222,0.438-0.469,0.672-0.695c3.262-3.176,6.434-6.442,9.457-9.851c1.797-2.024,3.446-4.168,5.153-6.266
		c1.351-1.668,2.777-3.266,4.074-4.985c12.051-15.906,21.606-33.813,28.118-53.301C482.004,361.447,512,327.096,512,285.283
		C512,255.65,496.898,229.818,474.641,216.232z M417.168,319.369c-0.004,0.027-0.012,0.059-0.016,0.086
		c-0.042-0.039-0.098-0.062-0.14-0.102c-1.598,15.394-5.309,29.863-10.825,43.218c-0.652,1.562-1.445,3.039-2.148,4.574
		c-1.191,2.633-2.356,5.285-3.691,7.824c-13.047,24.582-32.734,44.926-56.898,59.313c-0.477,0.281-0.922,0.606-1.402,0.882
		c-2.192,1.278-4.512,2.375-6.778,3.555c-2.164,1.109-4.266,2.308-6.488,3.328c-0.36,0.168-0.746,0.293-1.106,0.457
		c-21.614,9.734-45.93,15.07-71.676,15.07c-25.918,0-50.394-5.39-72.114-15.246c-0.203-0.094-0.422-0.164-0.625-0.258
		c-2.246-1.031-4.375-2.242-6.558-3.367c-2.238-1.164-4.531-2.246-6.699-3.508c-0.367-0.21-0.707-0.461-1.07-0.675
		c-24.313-14.379-44.114-34.778-57.23-59.446c-8.786-16.672-14.602-35.382-16.711-55.722c-6.144,5.305-13.742,8.488-22,8.488
		c-20.336,0-36.82-19.054-36.82-42.558s16.484-42.554,36.82-42.554c0.887,0,1.762,0.062,2.637,0.136
		c0.176,0.031,0.328,0.012,0.504,0.055l-0.363,1.152l-0.164,0.352c0.019,0,0.035,0.004,0.05,0.004l-0.046,0.156
		c1.57,0,3.137,0.172,4.652,0.453l3.027,22.574l0.786,6.61h7.625c7.207-10.77,13.894-20.516,19.328-27.359
		c44.45-55.402,81.641-50.442,149.286-70.962c55.762-16.898,75.972-51.367,82.839-63.843c0.157-0.278,0.336-0.594,0.481-0.848
		c1.145,0.738,2.344,1.481,3.492,2.164c4.074,26.047,10.969,78.031,53.434,151.102c1.828,3.25,3.711,6.442,5.692,9.746h17.71
		l3.918-29.184c1.195-0.21,2.394-0.34,3.594-0.367c0.054,0.008,0.117,0.004,0.172,0.012l-0.008-0.027
		c0.054,0,0.106-0.016,0.16-0.016l-0.305-0.988c2.43-0.582,4.938-0.922,7.52-0.922c20.332,0,36.816,19.05,36.816,42.554
		s-16.484,42.558-36.816,42.558c-6.871,0-13.223-2.297-18.719-6.086C419.234,320.99,418.156,320.271,417.168,319.369z" style="fill: rgb(228, 175, 155);"></path>
	<circle class="st0" cx="148.598" cy="327.322" r="23.148" style="fill: rgb(228, 175, 155);"></circle>
	<circle class="st0" cx="363.406" cy="327.322" r="23.148" style="fill: rgb(228, 175, 155);"></circle>
</g>
</svg>
